<svg width="38" height="44" viewBox="0 0 38 44" fill="none" xmlns="http://www.w3.org/2000/svg">
<g clip-path="url(#clip0_180_109)">
<path d="M33.9124 2.71301H4.06948C2.99019 2.71301 1.9551 3.14176 1.19192 3.90494C0.428748 4.66811 0 5.7032 0 6.7825L0 36.6254C0 37.7047 0.428748 38.7398 1.19192 39.5029C1.9551 40.2661 2.99019 40.6949 4.06948 40.6949H15.7057V27.7819H10.3645V21.7039H15.7057V17.0715C15.7057 11.8024 18.8426 8.89185 23.6471 8.89185C25.948 8.89185 28.3541 9.30219 28.3541 9.30219V14.4738H25.703C23.0909 14.4738 22.2762 16.0948 22.2762 17.7574V21.7039H28.1074L27.1748 27.7819H22.2762V40.6949H33.9124C34.9917 40.6949 36.0267 40.2661 36.7899 39.5029C37.5531 38.7398 37.9818 37.7047 37.9818 36.6254V6.7825C37.9818 5.7032 37.5531 4.66811 36.7899 3.90494C36.0267 3.14176 34.9917 2.71301 33.9124 2.71301V2.71301Z" fill="#FEFEFE"/>
</g>
<defs>
<clipPath id="clip0_180_109">
<rect width="37.9818" height="43.4078" fill="white"/>
</clipPath>
</defs>
</svg>
