<svg width="35" height="35" viewBox="0 0 35 35" fill="none" xmlns="http://www.w3.org/2000/svg">
<g clip-path="url(#clip0_180_117)">
<path d="M25.2369 0.112209C27.0118 0.193816 28.2388 0.454666 29.3726 0.894759C30.4476 1.29669 31.4208 1.93057 32.223 2.75131C33.0437 3.55352 33.6776 4.52673 34.0795 5.60172C34.5196 6.73692 34.7805 7.96248 34.8621 9.73743C34.9626 11.9379 34.9743 12.7132 34.9743 17.4872C34.9743 22.2611 34.9626 23.0364 34.8621 25.2369C34.7805 27.0118 34.5196 28.2388 34.0795 29.374C33.6774 30.4485 33.0436 31.4212 32.223 32.223C31.4208 33.0438 30.4476 33.6777 29.3726 34.0795C28.2374 34.5196 27.0118 34.7805 25.2369 34.8621C23.0364 34.9626 22.2626 34.9743 17.4872 34.9743C12.7117 34.9743 11.9364 34.9626 9.73743 34.8621C7.96248 34.7805 6.73547 34.5196 5.60026 34.0795C4.52577 33.6775 3.55306 33.0436 2.75131 32.223C1.93057 31.4208 1.29669 30.4476 0.894759 29.3726C0.454666 28.2374 0.193816 27.0118 0.112209 25.2369C0.0116581 23.0393 0 22.2641 0 17.4872C0 12.7117 0.0116581 11.935 0.112209 9.73743C0.193816 7.96248 0.454666 6.73547 0.894759 5.60172C1.29669 4.52673 1.93057 3.55352 2.75131 2.75131C3.55309 1.93075 4.52579 1.29688 5.60026 0.894759C6.73692 0.454666 7.96248 0.193816 9.73743 0.112209C11.935 0.0116581 12.7102 0 17.4872 0C22.2626 0 23.0393 0.0116581 25.2369 0.112209V0.112209ZM17.4872 3.88652C12.7656 3.88652 12.0428 3.89672 9.91376 3.99436C8.56287 4.05556 7.75264 4.22752 7.00798 4.51751C6.37407 4.76525 5.9704 5.02756 5.49825 5.49825C5.0261 5.9704 4.76379 6.37407 4.51751 7.00798C4.22898 7.75118 4.05556 8.56287 3.99436 9.91376C3.89672 12.0428 3.88652 12.7656 3.88652 17.4872C3.88652 22.2087 3.89672 22.9315 3.99436 25.0605C4.05556 26.4114 4.22752 27.2217 4.51751 27.9649C4.76525 28.6002 5.02756 29.0039 5.49825 29.476C5.9704 29.9482 6.37407 30.2105 7.00798 30.4568C7.75118 30.7453 8.56287 30.9187 9.91376 30.9799C12.0443 31.0776 12.7671 31.0878 17.4872 31.0878C22.2087 31.0878 22.93 31.0776 25.0605 30.9799C26.4114 30.9187 27.2217 30.7468 27.9663 30.4568C28.6002 30.2091 29.0039 29.9467 29.476 29.476C29.9482 29.0039 30.2105 28.6002 30.4568 27.9663C30.7453 27.2231 30.9187 26.4114 30.9799 25.0605C31.0776 22.93 31.0878 22.2072 31.0878 17.4872C31.0878 12.7671 31.0776 12.0443 30.9799 9.91376C30.9187 8.56287 30.7468 7.75264 30.4568 7.00943C30.2507 6.43685 29.9151 5.91966 29.476 5.49825C29.0547 5.05919 28.5375 4.72354 27.9649 4.51751C27.2217 4.22898 26.41 4.05556 25.0591 3.99436C22.93 3.89672 22.2072 3.88652 17.4857 3.88652H17.4872ZM17.4872 26.5542C15.0824 26.5542 12.7762 25.599 11.0758 23.8985C9.37534 22.1981 8.42006 19.8919 8.42006 17.4872C8.42006 15.0824 9.37534 12.7762 11.0758 11.0758C12.7762 9.37534 15.0824 8.42006 17.4872 8.42006C19.8919 8.42006 22.1981 9.37534 23.8985 11.0758C25.599 12.7762 26.5542 15.0824 26.5542 17.4872C26.5542 19.8919 25.599 22.1981 23.8985 23.8985C22.1981 25.599 19.8919 26.5542 17.4872 26.5542V26.5542ZM17.4872 22.6692C18.8615 22.6692 20.1796 22.1232 21.1514 21.1514C22.1232 20.1796 22.6692 18.8615 22.6692 17.4872C22.6692 16.1128 22.1232 14.7947 21.1514 13.8229C20.1796 12.8511 18.8615 12.3051 17.4872 12.3051C16.1128 12.3051 14.7947 12.8511 13.8229 13.8229C12.8511 14.7947 12.3051 16.1128 12.3051 17.4872C12.3051 18.8615 12.8511 20.1796 13.8229 21.1514C14.7947 22.1232 16.1128 22.6692 17.4872 22.6692V22.6692ZM26.5542 10.3626C26.0389 10.3626 25.5446 10.1579 25.1801 9.79343C24.8157 9.42899 24.611 8.93472 24.611 8.41933C24.611 7.90395 24.8157 7.40967 25.1801 7.04524C25.5446 6.68081 26.0389 6.47607 26.5542 6.47607C27.0696 6.47607 27.5639 6.68081 27.9283 7.04524C28.2928 7.40967 28.4975 7.90395 28.4975 8.41933C28.4975 8.93472 28.2928 9.42899 27.9283 9.79343C27.5639 10.1579 27.0696 10.3626 26.5542 10.3626Z" fill="#FEFEFE"/>
</g>
<defs>
<clipPath id="clip0_180_117">
<rect width="34.9743" height="34.9743" fill="white"/>
</clipPath>
</defs>
</svg>
