<svg width="428" height="428" viewBox="0 0 428 428" fill="none" xmlns="http://www.w3.org/2000/svg">
<rect width="428" height="428" rx="122.286" fill="#111111"/>
<path d="M214.027 96.979C216.318 96.979 218.509 97.8753 220.601 99.668C222.692 101.361 223.738 103.702 223.738 106.689C223.738 107.586 223.588 108.582 223.29 109.677L193.86 196.323C193.262 198.116 192.167 199.51 190.573 200.506C189.079 201.402 187.486 201.9 185.793 202C184.1 202 182.407 201.502 180.714 200.506C179.12 199.51 177.875 198.066 176.979 196.174L154.869 145.979L156.214 146.875L134.403 196.174C133.506 198.066 132.212 199.51 130.519 200.506C128.925 201.502 127.282 202 125.589 202C123.995 201.9 122.402 201.402 120.808 200.506C119.215 199.51 118.119 198.116 117.522 196.323L88.0919 109.677C87.7931 108.582 87.6437 107.586 87.6437 106.689C87.6437 103.702 88.6894 101.361 90.7809 99.668C92.9719 97.8753 95.2128 96.979 97.5034 96.979C99.3957 96.979 101.139 97.477 102.732 98.4729C104.425 99.4688 105.57 100.913 106.168 102.805L129.921 174.811L126.634 174.662L147.848 123.72C148.645 121.927 149.79 120.533 151.284 119.537C152.778 118.441 154.471 117.943 156.363 118.043C158.255 117.943 159.948 118.441 161.442 119.537C162.936 120.533 164.032 121.927 164.729 123.72L184.149 172.421L181.759 173.915L205.213 102.805C205.811 100.913 206.956 99.4688 208.649 98.4729C210.342 97.477 212.135 96.979 214.027 96.979ZM347.802 149.714C347.802 157.183 346.558 164.155 344.068 170.628C341.578 177.102 338.042 182.828 333.461 187.808C328.979 192.688 323.601 196.522 317.327 199.311C311.152 202.1 304.38 203.494 297.01 203.494C289.64 203.494 282.868 202.1 276.693 199.311C270.518 196.522 265.14 192.688 260.559 187.808C256.077 182.828 252.591 177.102 250.102 170.628C247.612 164.155 246.367 157.183 246.367 149.714C246.367 142.244 247.612 135.273 250.102 128.799C252.591 122.325 256.077 116.649 260.559 111.769C265.14 106.789 270.518 102.905 276.693 100.116C282.868 97.3276 289.64 95.9333 297.01 95.9333C304.38 95.9333 311.152 97.3276 317.327 100.116C323.601 102.905 328.979 106.789 333.461 111.769C338.042 116.649 341.578 122.325 344.068 128.799C346.558 135.273 347.802 142.244 347.802 149.714ZM328.382 149.714C328.382 143.041 327.037 137.015 324.348 131.637C321.659 126.16 317.974 121.828 313.293 118.641C308.613 115.454 303.185 113.86 297.01 113.86C290.835 113.86 285.407 115.454 280.726 118.641C276.046 121.828 272.361 126.11 269.672 131.488C267.082 136.866 265.787 142.941 265.787 149.714C265.787 156.386 267.082 162.462 269.672 167.939C272.361 173.317 276.046 177.6 280.726 180.787C285.407 183.974 290.835 185.567 297.01 185.567C303.185 185.567 308.613 183.974 313.293 180.787C317.974 177.6 321.659 173.317 324.348 167.939C327.037 162.462 328.382 156.386 328.382 149.714ZM161.971 319.521C164.56 319.521 166.702 320.368 168.395 322.061C170.187 323.655 171.084 325.746 171.084 328.335C171.084 330.825 170.187 332.917 168.395 334.61C166.702 336.203 164.56 337 161.971 337H113.419C110.83 337 108.639 336.153 106.846 334.46C105.153 332.668 104.307 330.477 104.307 327.887V241.54C104.307 238.951 105.203 236.809 106.996 235.116C108.788 233.324 111.079 232.427 113.867 232.427C116.258 232.427 118.349 233.324 120.142 235.116C122.034 236.809 122.98 238.951 122.98 241.54V322.061L119.694 319.521H161.971ZM221.805 327.887C221.805 330.477 220.859 332.668 218.967 334.46C217.074 336.153 214.883 337 212.393 337C209.605 337 207.364 336.153 205.671 334.46C203.978 332.668 203.131 330.477 203.131 327.887V241.54C203.131 238.951 204.028 236.809 205.82 235.116C207.613 233.324 209.904 232.427 212.692 232.427C215.082 232.427 217.174 233.324 218.967 235.116C220.859 236.809 221.805 238.951 221.805 241.54V327.887ZM305.97 232.427C315.531 232.427 322.652 234.668 327.333 239.15C332.013 243.631 334.354 250.254 334.354 259.019C334.354 263.699 333.209 267.833 330.918 271.418C328.627 274.904 325.241 277.642 320.759 279.634C316.278 281.527 310.75 282.473 304.177 282.473L304.775 275.75C307.862 275.75 311.398 276.198 315.381 277.095C319.365 277.891 323.199 279.385 326.884 281.576C330.669 283.668 333.756 286.656 336.147 290.54C338.636 294.324 339.881 299.204 339.881 305.18C339.881 311.753 338.786 317.131 336.595 321.314C334.503 325.497 331.715 328.734 328.229 331.024C324.743 333.315 321.008 334.909 317.025 335.805C313.041 336.602 309.207 337 305.522 337H268.324C265.734 337 263.543 336.153 261.75 334.46C260.057 332.668 259.211 330.477 259.211 327.887V241.54C259.211 238.951 260.057 236.809 261.75 235.116C263.543 233.324 265.734 232.427 268.324 232.427H305.97ZM303.281 250.055H276.689L278.631 247.665V274.704L276.839 273.36H303.729C306.617 273.36 309.207 272.414 311.497 270.522C313.788 268.629 314.933 265.89 314.933 262.305C314.933 258.023 313.838 254.935 311.647 253.043C309.555 251.051 306.767 250.055 303.281 250.055ZM304.476 290.988H277.287L278.631 289.793V321.314L277.138 319.82H305.522C310.103 319.82 313.738 318.625 316.427 316.235C319.116 313.745 320.461 310.06 320.461 305.18C320.461 300.698 319.564 297.462 317.772 295.47C315.979 293.478 313.838 292.233 311.348 291.735C308.858 291.237 306.567 290.988 304.476 290.988Z" fill="white"/>
<path d="M220.601 99.668L216.38 104.592L216.449 104.652L216.52 104.709L220.601 99.668ZM223.29 109.677L229.431 111.763L229.495 111.575L229.547 111.384L223.29 109.677ZM193.86 196.323L187.719 194.237L187.713 194.255L187.707 194.272L193.86 196.323ZM190.573 200.506L193.91 206.068L193.961 206.037L194.011 206.006L190.573 200.506ZM185.793 202V208.486H185.983L186.174 208.475L185.793 202ZM180.714 200.506L177.276 206.006L177.35 206.052L177.425 206.096L180.714 200.506ZM176.979 196.174L171.043 198.788L171.079 198.87L171.117 198.95L176.979 196.174ZM154.869 145.979L158.467 140.582L139.975 128.254L148.934 148.593L154.869 145.979ZM156.214 146.875L162.145 149.499L164.354 144.507L159.811 141.479L156.214 146.875ZM134.403 196.174L140.264 198.95L140.3 198.875L140.334 198.798L134.403 196.174ZM130.519 200.506L127.23 194.916L127.155 194.96L127.081 195.006L130.519 200.506ZM125.589 202L125.184 208.473L125.386 208.486H125.589V202ZM120.808 200.506L117.371 206.006L117.498 206.085L117.629 206.159L120.808 200.506ZM117.522 196.323L123.675 194.272L123.669 194.255L123.663 194.237L117.522 196.323ZM88.0919 109.677L81.8347 111.384L81.8869 111.575L81.9507 111.763L88.0919 109.677ZM90.7809 99.668L94.8617 104.709L94.8748 104.698L94.8879 104.688L90.7809 99.668ZM102.732 98.4729L99.2946 103.973L99.3686 104.019L99.4437 104.063L102.732 98.4729ZM106.168 102.805L99.9834 104.758L99.9958 104.798L100.009 104.837L106.168 102.805ZM129.921 174.811L129.627 181.29L139.029 181.717L136.08 172.779L129.921 174.811ZM126.634 174.662L120.647 172.168L117.086 180.72L126.34 181.141L126.634 174.662ZM147.848 123.72L141.921 121.086L141.89 121.156L141.86 121.226L147.848 123.72ZM151.284 119.537L154.881 124.933L155.002 124.853L155.119 124.767L151.284 119.537ZM156.363 118.043L156.022 124.52L156.363 124.538L156.704 124.52L156.363 118.043ZM161.442 119.537L157.607 124.767L157.724 124.853L157.845 124.933L161.442 119.537ZM164.729 123.72L158.684 126.07L158.694 126.096L158.704 126.122L164.729 123.72ZM184.149 172.421L187.587 177.921L192.18 175.05L190.174 170.018L184.149 172.421ZM181.759 173.915L175.6 171.883L169.979 188.926L185.197 179.415L181.759 173.915ZM205.213 102.805L211.373 104.837L211.386 104.798L211.398 104.758L205.213 102.805ZM214.027 103.465C214.471 103.465 215.215 103.594 216.38 104.592L224.821 94.7437C221.803 92.1568 218.165 90.4933 214.027 90.4933V103.465ZM216.52 104.709C216.909 105.024 217.252 105.413 217.252 106.689H230.224C230.224 101.99 228.475 97.6979 224.681 94.627L216.52 104.709ZM217.252 106.689C217.252 106.88 217.218 107.291 217.032 107.971L229.547 111.384C229.959 109.872 230.224 108.292 230.224 106.689H217.252ZM217.148 107.591L187.719 194.237L200.001 198.409L229.431 111.763L217.148 107.591ZM187.707 194.272C187.583 194.643 187.443 194.814 187.136 195.006L194.011 206.006C196.891 204.206 198.941 201.588 200.013 198.374L187.707 194.272ZM187.236 194.945C186.614 195.318 186.031 195.489 185.412 195.525L186.174 208.475C188.94 208.312 191.544 207.487 193.91 206.068L187.236 194.945ZM185.793 195.514C185.43 195.514 184.86 195.421 184.002 194.916L177.425 206.096C179.953 207.583 182.769 208.486 185.793 208.486V195.514ZM184.151 195.006C183.727 194.741 183.268 194.301 182.84 193.397L171.117 198.95C172.482 201.831 174.513 204.279 177.276 206.006L184.151 195.006ZM182.914 193.559L160.805 143.364L148.934 148.593L171.043 198.788L182.914 193.559ZM151.271 151.375L152.616 152.272L159.811 141.479L158.467 140.582L151.271 151.375ZM150.282 144.251L128.472 193.55L140.334 198.798L162.145 149.499L150.282 144.251ZM128.541 193.397C128.163 194.197 127.728 194.623 127.23 194.916L133.807 206.096C136.696 204.397 138.85 201.936 140.264 198.95L128.541 193.397ZM127.081 195.006C126.402 195.431 125.935 195.514 125.589 195.514V208.486C128.628 208.486 131.449 207.573 133.956 206.006L127.081 195.006ZM125.993 195.527C125.507 195.497 124.854 195.34 123.988 194.853L117.629 206.159C119.95 207.465 122.483 208.304 125.184 208.473L125.993 195.527ZM124.246 195.006C123.939 194.814 123.798 194.643 123.675 194.272L111.369 198.374C112.44 201.588 114.491 204.206 117.371 206.006L124.246 195.006ZM123.663 194.237L94.2331 107.591L81.9507 111.763L111.38 198.409L123.663 194.237ZM94.3491 107.971C94.1637 107.291 94.1295 106.88 94.1295 106.689H81.158C81.158 108.292 81.4225 109.872 81.8347 111.384L94.3491 107.971ZM94.1295 106.689C94.1295 105.413 94.4723 105.024 94.8617 104.709L86.7001 94.627C82.9066 97.6979 81.158 101.99 81.158 106.689H94.1295ZM94.8879 104.688C96.2017 103.613 97.0373 103.465 97.5034 103.465V90.4933C93.3883 90.4933 89.7422 92.1379 86.6739 94.6483L94.8879 104.688ZM97.5034 103.465C98.1892 103.465 98.7396 103.626 99.2946 103.973L106.17 92.973C103.538 91.3281 100.602 90.4933 97.5034 90.4933V103.465ZM99.4437 104.063C99.7394 104.237 99.8631 104.377 99.9834 104.758L112.353 100.852C111.278 97.4485 109.111 94.7005 106.02 92.8826L99.4437 104.063ZM100.009 104.837L123.762 176.843L136.08 172.779L112.327 100.773L100.009 104.837ZM130.216 168.332L126.929 168.183L126.34 181.141L129.627 181.29L130.216 168.332ZM132.622 177.155L153.835 126.213L141.86 121.226L120.647 172.168L132.622 177.155ZM153.775 126.354C154.12 125.576 154.504 125.185 154.881 124.933L147.686 114.14C145.076 115.881 143.169 118.278 141.921 121.086L153.775 126.354ZM155.119 124.767C155.377 124.578 155.587 124.497 156.022 124.52L156.704 111.566C153.355 111.39 150.179 112.305 147.448 114.307L155.119 124.767ZM156.704 124.52C157.139 124.497 157.349 124.578 157.607 124.767L165.278 114.307C162.547 112.305 159.371 111.39 156.022 111.566L156.704 124.52ZM157.845 124.933C158.148 125.136 158.434 125.427 158.684 126.07L170.774 121.369C169.63 118.427 167.724 115.93 165.04 114.14L157.845 124.933ZM158.704 126.122L178.125 174.823L190.174 170.018L170.753 121.317L158.704 126.122ZM180.712 166.921L178.322 168.415L185.197 179.415L187.587 177.921L180.712 166.921ZM187.919 175.946L211.373 104.837L199.054 100.774L175.6 171.883L187.919 175.946ZM211.398 104.758C211.518 104.377 211.642 104.237 211.938 104.063L205.361 92.8826C202.271 94.7005 200.104 97.4485 199.029 100.852L211.398 104.758ZM211.938 104.063C212.674 103.63 213.337 103.465 214.027 103.465V90.4933C210.934 90.4933 208.011 91.3237 205.361 92.8826L211.938 104.063ZM344.068 170.628L338.014 168.3V168.3L344.068 170.628ZM333.461 187.808L328.688 183.417L328.684 183.421L333.461 187.808ZM317.327 199.311L314.693 193.384L314.675 193.392L314.658 193.4L317.327 199.311ZM276.693 199.311L279.362 193.4L276.693 199.311ZM260.559 187.808L255.738 192.147L255.784 192.197L255.83 192.247L260.559 187.808ZM250.102 170.628L256.155 168.3L250.102 170.628ZM250.102 128.799L256.155 131.127L250.102 128.799ZM260.559 111.769L255.786 107.377L255.782 107.382L260.559 111.769ZM276.693 100.116L279.362 106.027L276.693 100.116ZM317.327 100.116L314.658 106.027L314.675 106.035L314.693 106.043L317.327 100.116ZM333.461 111.769L328.64 116.107L328.686 116.158L328.732 116.208L333.461 111.769ZM344.068 128.799L338.014 131.127V131.127L344.068 128.799ZM324.348 131.637L318.526 134.496L318.537 134.517L318.547 134.538L324.348 131.637ZM313.293 118.641L316.944 113.279L313.293 118.641ZM280.726 118.641L284.377 124.002V124.002L280.726 118.641ZM269.672 131.488L263.871 128.588L263.849 128.631L263.828 128.674L269.672 131.488ZM269.672 167.939L263.808 170.711L263.839 170.776L263.871 170.84L269.672 167.939ZM280.726 180.787L284.377 175.426L280.726 180.787ZM313.293 180.787L316.944 186.148L313.293 180.787ZM324.348 167.939L330.149 170.84L330.16 170.818L330.17 170.797L324.348 167.939ZM341.317 149.714C341.317 156.449 340.197 162.625 338.014 168.3L350.121 172.956C352.918 165.684 354.288 157.917 354.288 149.714H341.317ZM338.014 168.3C335.81 174.031 332.702 179.053 328.688 183.417L338.234 192.199C343.382 186.603 347.346 180.173 350.121 172.956L338.014 168.3ZM328.684 183.421C324.826 187.623 320.185 190.943 314.693 193.384L319.961 205.238C327.018 202.102 333.133 197.754 338.238 192.195L328.684 183.421ZM314.658 193.4C309.393 195.778 303.541 197.008 297.01 197.008V209.98C305.219 209.98 312.911 208.422 319.996 205.222L314.658 193.4ZM297.01 197.008C290.479 197.008 284.627 195.778 279.362 193.4L274.023 205.222C281.109 208.422 288.801 209.98 297.01 209.98V197.008ZM279.362 193.4C273.954 190.958 269.278 187.62 265.287 183.369L255.83 192.247C261.002 197.756 267.082 202.087 274.023 205.222L279.362 193.4ZM265.38 183.469C261.447 179.1 258.37 174.06 256.155 168.3L244.048 172.956C246.812 180.143 250.707 186.557 255.738 192.147L265.38 183.469ZM256.155 168.3C253.972 162.625 252.853 156.449 252.853 149.714H239.881C239.881 157.917 241.251 165.684 244.048 172.956L256.155 168.3ZM252.853 149.714C252.853 142.979 253.972 136.802 256.155 131.127L244.048 126.471C241.251 133.743 239.881 141.51 239.881 149.714H252.853ZM256.155 131.127C258.366 125.378 261.431 120.408 265.336 116.156L255.782 107.382C250.724 112.89 246.816 119.273 244.048 126.471L256.155 131.127ZM265.332 116.16C269.321 111.824 273.983 108.457 279.362 106.027L274.023 94.2053C267.053 97.3531 260.96 101.754 255.786 107.377L265.332 116.16ZM279.362 106.027C284.627 103.65 290.479 102.419 297.01 102.419V89.4475C288.801 89.4475 281.109 91.0055 274.023 94.2053L279.362 106.027ZM297.01 102.419C303.541 102.419 309.393 103.65 314.658 106.027L319.996 94.2053C312.911 91.0055 305.219 89.4475 297.01 89.4475V102.419ZM314.693 106.043C320.156 108.471 324.783 111.822 328.64 116.107L338.282 107.43C333.175 101.756 327.046 97.3385 319.961 94.1894L314.693 106.043ZM328.732 116.208C332.719 120.454 335.814 125.407 338.014 131.127L350.121 126.471C347.341 119.243 343.366 112.843 338.19 107.33L328.732 116.208ZM338.014 131.127C340.197 136.802 341.317 142.979 341.317 149.714H354.288C354.288 141.51 352.918 133.743 350.121 126.471L338.014 131.127ZM334.868 149.714C334.868 142.146 333.336 135.111 330.149 128.737L318.547 134.538C320.738 138.92 321.896 143.936 321.896 149.714H334.868ZM330.17 128.779C327.026 122.374 322.625 117.147 316.944 113.279L309.643 124.002C313.324 126.508 316.293 129.946 318.526 134.496L330.17 128.779ZM316.944 113.279C311.089 109.293 304.364 107.374 297.01 107.374V120.346C302.006 120.346 306.136 121.614 309.643 124.002L316.944 113.279ZM297.01 107.374C289.656 107.374 282.931 109.293 277.076 113.279L284.377 124.002C287.884 121.614 292.014 120.346 297.01 120.346V107.374ZM277.076 113.279C271.423 117.128 267.023 122.282 263.871 128.588L275.473 134.389C277.698 129.938 280.668 126.527 284.377 124.002L277.076 113.279ZM263.828 128.674C260.762 135.042 259.302 142.099 259.302 149.714H272.273C272.273 143.784 273.402 138.691 275.515 134.302L263.828 128.674ZM259.302 149.714C259.302 157.247 260.769 164.282 263.808 170.711L275.535 165.167C273.395 160.641 272.273 155.526 272.273 149.714H259.302ZM263.871 170.84C267.023 177.145 271.423 182.299 277.076 186.148L284.377 175.426C280.668 172.9 277.698 169.49 275.473 165.039L263.871 170.84ZM277.076 186.148C282.931 190.134 289.656 192.053 297.01 192.053V179.081C292.014 179.081 287.884 177.813 284.377 175.426L277.076 186.148ZM297.01 192.053C304.364 192.053 311.089 190.134 316.944 186.148L309.643 175.426C306.136 177.813 302.006 179.081 297.01 179.081V192.053ZM316.944 186.148C322.596 182.299 326.997 177.145 330.149 170.84L318.547 165.039C316.322 169.49 313.352 172.9 309.643 175.426L316.944 186.148ZM330.17 170.797C333.336 164.349 334.868 157.283 334.868 149.714H321.896C321.896 155.49 320.739 160.574 318.526 165.081L330.17 170.797ZM168.395 322.061L163.809 326.647L163.943 326.782L164.086 326.909L168.395 322.061ZM168.395 334.61L172.84 339.333L172.848 339.325L168.395 334.61ZM106.846 334.46L102.131 338.914L102.258 339.048L102.393 339.176L106.846 334.46ZM106.996 235.116L111.449 239.831L111.516 239.768L111.582 239.702L106.996 235.116ZM120.142 235.116L115.556 239.702L115.683 239.83L115.817 239.95L120.142 235.116ZM122.98 322.061L119.015 327.193L129.466 335.269V322.061H122.98ZM119.694 319.521V313.036H100.693L115.728 324.653L119.694 319.521ZM161.971 326.007C162.995 326.007 163.437 326.276 163.809 326.647L172.981 317.475C169.966 314.46 166.126 313.036 161.971 313.036V326.007ZM164.086 326.909C164.374 327.165 164.598 327.433 164.598 328.335H177.569C177.569 324.059 176 320.144 172.704 317.214L164.086 326.909ZM164.598 328.335C164.598 329.061 164.423 329.44 163.941 329.895L172.848 339.325C175.952 336.393 177.569 332.59 177.569 328.335H164.598ZM163.95 329.887C163.6 330.216 163.112 330.514 161.971 330.514V343.486C166.009 343.486 169.803 342.191 172.84 339.333L163.95 329.887ZM161.971 330.514H113.419V343.486H161.971V330.514ZM113.419 330.514C112.394 330.514 111.823 330.24 111.299 329.745L102.393 339.176C105.454 342.067 109.265 343.486 113.419 343.486V330.514ZM111.561 330.007C111.067 329.483 110.792 328.912 110.792 327.887H97.8208C97.8208 332.041 99.2394 335.852 102.131 338.914L111.561 330.007ZM110.792 327.887V241.54H97.8208V327.887H110.792ZM110.792 241.54C110.792 240.634 111.025 240.232 111.449 239.831L102.542 230.401C99.381 233.387 97.8208 237.267 97.8208 241.54H110.792ZM111.582 239.702C112.031 239.253 112.61 238.913 113.867 238.913V225.941C109.548 225.941 105.546 227.394 102.409 230.53L111.582 239.702ZM113.867 238.913C114.425 238.913 114.897 239.044 115.556 239.702L124.728 230.53C121.801 227.603 118.09 225.941 113.867 225.941V238.913ZM115.817 239.95C116.304 240.385 116.494 240.754 116.494 241.54H129.466C129.466 237.147 127.765 233.234 124.466 230.283L115.817 239.95ZM116.494 241.54V322.061H129.466V241.54H116.494ZM126.946 316.929L123.659 314.389L115.728 324.653L119.015 327.193L126.946 316.929ZM119.694 326.007H161.971V313.036H119.694V326.007ZM218.967 334.46L223.291 339.294L223.36 339.232L223.427 339.169L218.967 334.46ZM205.671 334.46L200.956 338.914L201.019 338.981L201.085 339.046L205.671 334.46ZM205.82 235.116L210.274 239.831L210.341 239.768L210.406 239.702L205.82 235.116ZM218.967 235.116L214.381 239.702L214.508 239.83L214.642 239.95L218.967 235.116ZM215.319 327.887C215.319 328.682 215.115 329.175 214.506 329.752L223.427 339.169C226.603 336.16 228.291 332.271 228.291 327.887H215.319ZM214.642 329.627C213.913 330.279 213.253 330.514 212.393 330.514V343.486C216.514 343.486 220.236 342.028 223.291 339.294L214.642 329.627ZM212.393 330.514C211.019 330.514 210.533 330.151 210.257 329.874L201.085 339.046C204.195 342.156 208.191 343.486 212.393 343.486V330.514ZM210.386 330.007C209.891 329.483 209.617 328.912 209.617 327.887H196.646C196.646 332.041 198.064 335.852 200.956 338.914L210.386 330.007ZM209.617 327.887V241.54H196.646V327.887H209.617ZM209.617 241.54C209.617 240.634 209.849 240.232 210.274 239.831L201.367 230.401C198.206 233.387 196.646 237.267 196.646 241.54H209.617ZM210.406 239.702C210.855 239.253 211.435 238.913 212.692 238.913V225.941C208.372 225.941 204.371 227.394 201.234 230.53L210.406 239.702ZM212.692 238.913C213.25 238.913 213.722 239.044 214.381 239.702L223.553 230.53C220.626 227.603 216.915 225.941 212.692 225.941V238.913ZM214.642 239.95C215.128 240.385 215.319 240.754 215.319 241.54H228.291C228.291 237.147 226.589 233.234 223.291 230.283L214.642 239.95ZM215.319 241.54V327.887H228.291V241.54H215.319ZM330.918 271.418L336.338 274.98L336.361 274.945L336.383 274.91L330.918 271.418ZM320.759 279.634L323.282 285.609L323.338 285.586L323.394 285.561L320.759 279.634ZM304.177 282.473L297.717 281.898L297.089 288.958H304.177V282.473ZM304.775 275.75V269.264H298.84L298.314 275.176L304.775 275.75ZM315.381 277.095L313.958 283.422L314.033 283.439L314.109 283.454L315.381 277.095ZM326.884 281.576L323.57 287.151L323.658 287.203L323.747 287.253L326.884 281.576ZM336.147 290.54L330.623 293.939L330.674 294.022L330.728 294.104L336.147 290.54ZM336.595 321.314L330.849 318.305L330.821 318.359L330.794 318.414L336.595 321.314ZM328.229 331.024L324.667 325.604V325.604L328.229 331.024ZM317.025 335.805L318.297 342.165L318.373 342.149L318.448 342.132L317.025 335.805ZM261.75 334.46L257.035 338.914L257.162 339.048L257.297 339.176L261.75 334.46ZM261.75 235.116L257.164 230.53L261.75 235.116ZM276.689 250.055L271.656 245.965L263.063 256.541H276.689V250.055ZM278.631 247.665H285.117V229.397L273.598 243.575L278.631 247.665ZM278.631 274.704L274.74 279.893L285.117 287.676V274.704H278.631ZM276.839 273.36V266.874H257.382L272.947 278.549L276.839 273.36ZM311.497 270.522L307.367 265.521L311.497 270.522ZM311.647 253.043L307.174 257.74L307.288 257.848L307.407 257.952L311.647 253.043ZM277.287 290.988L272.978 286.14L260.228 297.474H277.287V290.988ZM278.631 289.793H285.117V275.35L274.323 284.945L278.631 289.793ZM278.631 321.314L274.045 325.9L285.117 336.972V321.314H278.631ZM277.138 319.82V313.334H261.48L272.551 324.406L277.138 319.82ZM316.427 316.235L320.736 321.082L320.785 321.039L320.834 320.994L316.427 316.235ZM317.772 295.47L312.951 299.808L317.772 295.47ZM311.348 291.735L310.076 298.095L311.348 291.735ZM305.97 238.913C314.645 238.913 319.841 240.957 322.847 243.834L331.818 234.465C325.462 228.38 316.417 225.941 305.97 225.941V238.913ZM322.847 243.834C325.849 246.709 327.868 251.378 327.868 259.019H340.84C340.84 249.131 338.178 240.554 331.818 234.465L322.847 243.834ZM327.868 259.019C327.868 262.591 327.011 265.487 325.452 267.926L336.383 274.91C339.406 270.178 340.84 264.808 340.84 259.019H327.868ZM325.498 267.856C324.003 270.131 321.674 272.13 318.125 273.708L323.394 285.561C328.808 283.155 333.252 279.676 336.338 274.98L325.498 267.856ZM318.237 273.659C314.781 275.119 310.17 275.987 304.177 275.987V288.958C311.33 288.958 317.775 287.935 323.282 285.609L318.237 273.659ZM310.637 283.047L311.235 276.324L298.314 275.176L297.717 281.898L310.637 283.047ZM304.775 282.236C307.258 282.236 310.301 282.6 313.958 283.422L316.805 270.767C312.494 269.797 308.466 269.264 304.775 269.264V282.236ZM314.109 283.454C317.334 284.099 320.481 285.315 323.57 287.151L330.199 276.002C325.918 273.456 321.397 271.684 316.653 270.735L314.109 283.454ZM323.747 287.253C326.499 288.774 328.785 290.953 330.623 293.939L341.67 287.141C338.727 282.358 334.839 278.562 330.021 275.9L323.747 287.253ZM330.728 294.104C332.332 296.541 333.396 300.074 333.396 305.18H346.367C346.367 298.335 344.941 292.107 341.565 286.975L330.728 294.104ZM333.396 305.18C333.396 311.093 332.401 315.342 330.849 318.305L342.34 324.324C345.17 318.92 346.367 312.413 346.367 305.18H333.396ZM330.794 318.414C329.15 321.701 327.086 324.015 324.667 325.604L331.791 336.445C336.344 333.453 339.856 329.293 342.396 324.215L330.794 318.414ZM324.667 325.604C321.819 327.476 318.807 328.756 315.601 329.477L318.448 342.132C323.21 341.061 327.667 339.154 331.791 336.445L324.667 325.604ZM315.753 329.445C312.146 330.167 308.739 330.514 305.522 330.514V343.486C309.675 343.486 313.936 343.037 318.297 342.165L315.753 329.445ZM305.522 330.514H268.324V343.486H305.522V330.514ZM268.324 330.514C267.299 330.514 266.727 330.24 266.204 329.745L257.297 339.176C260.359 342.067 264.17 343.486 268.324 343.486V330.514ZM266.466 330.007C265.971 329.483 265.697 328.912 265.697 327.887H252.725C252.725 332.041 254.144 335.852 257.035 338.914L266.466 330.007ZM265.697 327.887V241.54H252.725V327.887H265.697ZM265.697 241.54C265.697 240.516 265.965 240.074 266.337 239.702L257.164 230.53C254.15 233.545 252.725 237.385 252.725 241.54H265.697ZM266.337 239.702C266.884 239.155 267.413 238.913 268.324 238.913V225.941C264.055 225.941 260.202 227.492 257.164 230.53L266.337 239.702ZM268.324 238.913H305.97V225.941H268.324V238.913ZM303.281 243.569H276.689V256.541H303.281V243.569ZM281.723 254.145L283.665 251.755L273.598 243.575L271.656 245.965L281.723 254.145ZM272.146 247.665V274.704H285.117V247.665H272.146ZM282.523 269.516L280.73 268.171L272.947 278.549L274.74 279.893L282.523 269.516ZM276.839 279.846H303.729V266.874H276.839V279.846ZM303.729 279.846C308.171 279.846 312.211 278.344 315.628 275.522L307.367 265.521C306.202 266.483 305.063 266.874 303.729 266.874V279.846ZM315.628 275.522C319.72 272.142 321.419 267.384 321.419 262.305H308.447C308.447 264.397 307.856 265.117 307.367 265.521L315.628 275.522ZM321.419 262.305C321.419 257.057 320.077 251.754 315.886 248.134L307.407 257.952C307.599 258.117 308.447 258.989 308.447 262.305H321.419ZM316.12 248.346C312.581 244.977 308.067 243.569 303.281 243.569V256.541C305.467 256.541 306.529 257.126 307.174 257.74L316.12 248.346ZM304.476 284.502H277.287V297.474H304.476V284.502ZM281.596 295.835L282.94 294.64L274.323 284.945L272.978 286.14L281.596 295.835ZM272.146 289.793V321.314H285.117V289.793H272.146ZM283.218 316.728L281.724 315.234L272.551 324.406L274.045 325.9L283.218 316.728ZM277.138 326.306H305.522V313.334H277.138V326.306ZM305.522 326.306C311.243 326.306 316.563 324.792 320.736 321.082L312.118 311.387C310.913 312.458 308.962 313.334 305.522 313.334V326.306ZM320.834 320.994C325.247 316.907 326.946 311.24 326.946 305.18H313.975C313.975 308.88 312.985 310.583 312.021 311.476L320.834 320.994ZM326.946 305.18C326.946 300.098 325.978 294.892 322.592 291.131L312.951 299.808C313.151 300.031 313.975 301.299 313.975 305.18H326.946ZM322.592 291.131C319.921 288.162 316.558 286.163 312.62 285.375L310.076 298.095C311.117 298.303 312.037 298.793 312.951 299.808L322.592 291.131ZM312.62 285.375C309.797 284.81 307.074 284.502 304.476 284.502V297.474C306.061 297.474 307.919 297.663 310.076 298.095L312.62 285.375Z" fill="white"/>
</svg>
