<svg width="40" height="40" viewBox="0 0 40 40" fill="none" xmlns="http://www.w3.org/2000/svg">
<g clip-path="url(#clip0_180_111)">
<path fill-rule="evenodd" clip-rule="evenodd" d="M39.1911 19.5955C39.1911 30.4172 30.4172 39.1911 19.5955 39.1911C8.7739 39.1911 0 30.4172 0 19.5955C0 8.7739 8.7739 0 19.5955 0C30.4172 0 39.1911 8.7739 39.1911 19.5955ZM20.2977 14.4664C18.392 15.2584 14.5823 16.8995 8.87024 19.3881C7.94272 19.7572 7.4561 20.1181 7.41201 20.4708C7.33689 21.0685 8.08479 21.3036 9.10049 21.622C9.23929 21.6661 9.38299 21.7102 9.52996 21.7592C10.531 22.0842 11.8765 22.4646 12.5754 22.4793C13.2107 22.4924 13.9194 22.2311 14.7015 21.6955C20.0381 18.0916 22.7929 16.2708 22.966 16.2316C23.0884 16.2039 23.2583 16.1679 23.3726 16.2708C23.4869 16.3721 23.4754 16.5648 23.464 16.617C23.3889 16.9322 20.4594 19.6576 18.9407 21.0685C18.4672 21.5077 18.1324 21.8196 18.0638 21.8915C17.9103 22.0499 17.7536 22.2017 17.6033 22.3471C16.6725 23.2419 15.9769 23.9147 17.6425 25.0121C18.4427 25.5395 19.0828 25.9755 19.7213 26.4099C20.4185 26.8851 21.1142 27.3586 22.0156 27.9498C22.2442 28.1 22.463 28.2551 22.6769 28.407C23.4885 28.9867 24.2184 29.506 25.1198 29.4243C25.6424 29.3753 26.1845 28.8838 26.4589 27.4158C27.1071 23.9441 28.3841 16.426 28.6797 13.3266C28.6977 13.0693 28.6867 12.8107 28.647 12.5558C28.6233 12.35 28.523 12.1605 28.3662 12.0251C28.1327 11.8341 27.7701 11.7932 27.6068 11.7965C26.8704 11.8096 25.7404 12.2031 20.2977 14.4664V14.4664Z" fill="#FEFEFE"/>
</g>
<defs>
<clipPath id="clip0_180_111">
<rect width="39.1911" height="39.1911" fill="white"/>
</clipPath>
</defs>
</svg>
