<svg width="50" height="50" viewBox="0 0 50 50" fill="none" xmlns="http://www.w3.org/2000/svg">
<g clip-path="url(#clip0_180_114)">
<path d="M24.9626 6.19806H25.2386C27.7872 6.20736 40.701 6.30038 44.183 7.23675C45.2356 7.52252 46.1948 8.07955 46.9647 8.85216C47.7346 9.62478 48.2882 10.5859 48.5703 11.6395C48.8834 12.8178 49.1036 14.3773 49.2524 15.9865L49.2834 16.309L49.3516 17.1151L49.3764 17.4376C49.5779 20.2715 49.6027 22.9256 49.6058 23.5054V23.7379C49.6027 24.3394 49.5748 27.1733 49.3516 30.1251L49.3268 30.4506L49.2989 30.7731C49.1439 32.5466 48.9144 34.3077 48.5703 35.6038C48.2891 36.6578 47.7357 37.6194 46.9657 38.3921C46.1956 39.1649 45.236 39.7216 44.183 40.0066C40.5863 40.9739 26.916 41.0421 25.0215 41.0452H24.5812C23.6232 41.0452 19.6606 41.0266 15.5059 40.884L14.9788 40.8654L14.7091 40.853L14.1789 40.8313L13.6487 40.8096C10.207 40.6577 6.92975 40.4127 5.41978 40.0035C4.36711 39.7188 3.40772 39.1625 2.63772 38.3904C1.86773 37.6182 1.31416 36.6572 1.03249 35.6038C0.688324 34.3108 0.458883 32.5466 0.303855 30.7731L0.27905 30.4475L0.254246 30.1251C0.101226 28.0241 0.0164325 25.9188 0 23.8123L0 23.431C0.00620112 22.7643 0.0310056 20.4606 0.198436 17.9182L0.22014 17.5988L0.229441 17.4376L0.254246 17.1151L0.322458 16.309L0.353464 15.9865C0.502291 14.3773 0.72243 12.8147 1.03559 11.6395C1.31679 10.5855 1.87014 9.6239 2.64017 8.85115C3.41019 8.0784 4.36983 7.52166 5.42288 7.23675C6.93285 6.83367 10.2101 6.58563 13.6518 6.4306L14.1789 6.4089L14.7122 6.39029L14.9788 6.38099L15.509 6.35929C18.4598 6.26433 21.4119 6.21162 24.3642 6.20116H24.9626V6.19806ZM19.8436 16.1509V31.0893L32.7326 23.6232L19.8436 16.1509Z" fill="#FEFEFE"/>
</g>
<defs>
<clipPath id="clip0_180_114">
<rect width="49.6089" height="49.6089" fill="white"/>
</clipPath>
</defs>
</svg>
